<!-- Created with Inkscape (http://www.inkscape.org/) -->
<svg
    width="100%"
    height="100%"
    version="1.1"
    viewBox="0 0 116.8 73.596"
    xml:space="preserve"
    xmlns="http://www.w3.org/2000/svg"
>
    <defs>
        <marker
            id="ThreeDots"
            overflow="visible"
            markerHeight="2"
            markerWidth="2"
            orient="auto-start-reverse"
            preserveAspectRatio="none"
            viewBox="0 0 1 1"
        >
            <g transform="scale(.5)">
                <circle
                    cx="4"
                    r="1"
                    fill="context-stroke"
                    stroke="context-stroke"
                />
                <circle
                    cx="8"
                    r="1"
                    fill="context-stroke"
                    stroke="context-stroke"
                />
                <circle
                    cx="12"
                    r="1"
                    fill="context-stroke"
                    stroke="context-stroke"
                />
            </g>
        </marker>
    </defs>
    <g fill="none" stroke="#000">
        <path
            id="tapedeck-tape"
            d="m38.04 31.673c3.0829 0.6917 5.0583 3.8556 4.3678 6.9307-0.7037 3.1336-3.92 5.1415-7.0459 4.439-3.1843-0.7156-5.2247-3.9844-4.5102-7.161 0.7276-3.2351 4.0487-5.3079 7.2761-4.5815 3.2859 0.7396 5.3911 4.1132 4.6528 7.3913-0.7515 3.3367-4.1776 5.4743-7.5065 4.724-3.3874-0.7635-5.5575-4.2419-4.7952-7.6216 0.7754-3.4382 4.3063-5.6407 7.7367-4.8665 3.489 0.7874 5.7239 4.3707 4.9378 7.8519-0.7994 3.5397-4.4351 5.8071-7.9671 5.009-3.5905-0.8113-5.8903-4.4994-5.0802-8.0822 0.8233-3.6412 4.5638-5.9735 8.1973-5.1514 3.6921 0.8352 6.0567 4.6281 5.2227 8.3124-0.8472 3.7428-4.6925 6.1399-8.4276 5.294-3.7935-0.8592-6.223-4.757-5.3652-8.5428 0.8712-3.8443 4.8213-6.3063 8.6579-5.4364 3.8951 0.8831 6.3895 4.8857 5.5077 8.773-0.895 3.9459-4.9501 6.4727-8.8882 5.579-3.9966-0.9071-6.5558-5.0145-5.6502-9.0034 0.919-4.0474 5.0789-6.6391 9.1185-5.7214 4.0982 0.9309 6.7223 5.1432 5.7927 9.2336-0.9429 4.1489-5.2076 6.8055-9.3488 5.8639-4.1997-0.9548-6.8886-5.2719-5.9351-9.4639 0.9668-4.2504 5.3363-6.9719 9.579-6.0064 4.3013 0.9788 7.0551 5.4007 6.0777 9.6942-0.9908 4.352-5.4651 7.1383-9.8094 6.1489-4.4027-1.0027-7.2214-5.5295-6.2201-9.9245 1.0146-4.4535 5.5939-7.3047 10.04-6.2914 4.5043 1.0266 7.3879 5.6583 6.3627 10.155-1.0386 4.5551-5.7227 7.4711-10.27 6.4339-4.6058-1.0506-7.5542-5.787-6.5051-10.385 1.0625-4.6566 5.8514-7.6375 10.5-6.5763 4.7073 1.0744 7.7206 5.9157 6.6475 10.615-1.0864 4.7581-5.9801 7.8039-10.73 6.7189-4.8089-1.0984-7.887-6.0446-6.7901-10.846 1.1104-4.8597 6.1089-7.9703 10.961-6.8613 4.9104 1.1223 8.0534 6.1733 6.9325 11.076-1.1342 4.9612-6.2377 8.1371-11.191 7.0038-5.0119-1.1462-8.2198-6.302-7.075-11.306 1.1581-5.0627 6.3664-8.3031 11.421-7.1463 5.1134 1.1701 8.3862 6.4308 7.2175 11.537-1.1821 5.1642-6.4952 8.4692-11.652 7.2887-5.215-1.194-8.5526-6.5595-7.36-11.767 1.206-5.2658 6.6239-8.6359 11.882-7.4313 5.3165 1.218 8.719 6.6883 7.5025 11.997-1.23 5.3673-6.7527 8.8024-12.112 7.5734-5.4181-1.2416-8.8855-6.8168-7.645-12.227 1.2538-5.4689 6.8815-8.9687 12.343-7.7163 5.5196 1.2658 9.0518 6.9459 7.7874 12.458-1.2777 5.5703-7.0102 9.1346-12.573 7.8586-5.6211-1.2896-9.2183-7.0745-7.93-12.688 1.3017-5.6719 7.139-9.3015 12.803-8.0012 5.7226 1.3136 9.3846 7.2033 8.0724 12.918-1.3256 5.7734-7.2677 9.4678-13.033 8.1438-5.8242-1.3377-9.5511-7.3323-8.215-13.149 1.3496-5.875 7.3965-9.6343 13.264-8.2862 5.9257 1.3615 9.7174 7.4609 8.3574 13.379-1.3734 5.9765-7.5253 9.801-13.494 8.429-6.0273-1.3858-9.8839-7.59-8.4999-13.61 1.3973-6.0781 7.654-9.9671 13.724-8.5712 6.1288 1.4093 10.05 7.7184 8.6424 13.84-1.4213 6.1795-7.7828 10.133-13.955 8.7132-6.2304-1.433-10.217-7.8467-8.7849-14.069 1.4452-6.281 7.9115-10.3 14.185-8.8561 6.3318 1.4572 10.383 7.9759 8.9274 14.3-1.4692 6.3826-8.0403 10.466-14.415 8.9984-6.4334-1.481-10.55-8.1045-9.0699-14.53 1.493-6.4841 8.1691-10.633 14.646-9.1411 6.5349 1.505 10.716 8.2335 9.2123 14.761-1.5169 6.5857-8.2978 10.799-14.876 9.2836-6.6364-1.529-10.882-8.3622-9.3548-14.991 1.5409-6.6872 8.4266-10.965 15.106-9.426 6.738 1.5528 11.049 8.4909 9.4973 15.221-1.5648 6.7888-8.5553 11.132-15.336 9.5688-6.8395-1.577-11.215-8.62-9.6398-15.452 1.5887-6.8902 8.6841-11.298 15.567-9.711 6.941 1.6006 11.381 8.7485 9.7823 15.682-1.6126 6.992-8.8128 11.465-15.797 9.854-7.0425-1.625-11.548-8.8777-9.9247-15.913 1.6365-7.0933 8.9416-11.631 16.027-9.996 7.1441 1.6485 11.714 9.006 10.067 16.142-1.6605 7.1952-9.0704 11.797-16.258 10.138-7.2456-1.672-11.881-9.1344-10.21-16.372 1.6844-7.2964 9.1991-11.964 16.488-10.281 7.3472 1.6964 12.047 9.2635 10.352 16.603-1.7083 7.3984-9.3279 12.13-16.718 10.423-7.4487-1.72-12.213-9.3922-10.495-16.833 1.7322-7.4994 9.4567-12.297 16.948-10.566 7.5503 1.7441 12.38 9.521 10.637 17.064-1.7561 7.6006-9.5854 12.463-17.179 10.709-7.6517-1.768-12.546-9.6499-10.78-17.294 1.7801-7.7025 9.7142-12.629 17.409-10.851 7.7533 1.792 12.713 9.7785 10.922 17.524-1.8039 7.8038-9.8429 12.796-17.639 10.994-7.8548-1.816-12.879-9.9077-11.065-17.755 1.8278-7.9056 9.9716-12.962 17.87-11.136 7.9564 1.8398 13.046 10.036 11.207 17.985-1.8518 8.007-10.1 13.129-18.1 11.278-8.0579-1.863-13.212-10.164-11.35-18.215 1.8757-8.1087 10.229-13.295 18.33-11.421 8.1595 1.8877 13.378 10.294 11.492 18.445-1.8996 8.2102-10.358 13.461-18.56 11.563-8.261-1.911-13.545-10.422-11.635-18.675 1.9235-8.3117 10.487-13.628 18.791-11.706 8.3624 1.9355 13.711 10.551 11.777 18.906-1.9474 8.4134-10.615 13.794-19.021 11.848-8.464-1.959-13.877-10.68-11.92-19.136 1.9714-8.5148 10.744-13.961 19.251-11.991 8.5655 1.9833 14.044 10.809 12.062 19.366-1.9953 8.6165-10.873 14.126-19.482 12.134-8.6671-2.007-14.21-10.938-12.205-19.597 2.0192-8.7179 11.002-14.293 19.712-12.276 8.7686 2.0311 14.377 11.066 12.347 19.827-2.0431 8.8197-11.13 14.46-19.942 12.419-8.8702-2.056-14.543-11.195-12.49-20.058 2.067-8.9209 11.259-14.626 20.172-12.561 8.9716 2.079 14.709 11.324 12.632 20.288-2.091 9.0229-11.388 14.793-20.403 12.703-9.0732-2.103-14.876-11.452-12.774-20.518 2.1148-9.124 11.517-14.959 20.633-12.846 9.1747 2.1268 15.042 11.581 12.917 20.748-2.1388 9.2251-11.646 15.125-20.863 12.988-9.2763-2.151-15.209-11.71-13.06-20.978 2.1627-9.3271 11.774-15.292 21.094-13.131 9.3778 2.1747 15.375 11.839 13.202 21.209-2.1866 9.4283-11.903 15.458-21.324 13.273-9.4794-2.199-15.542-11.968-13.344-21.439 2.2106-9.5301 12.032-15.625 21.554-13.416 9.5809 2.2225 15.708 12.096 13.487 21.669-2.2344 9.6315-12.161 15.792-21.784 13.558-9.6824-2.247-15.874-12.225-13.63-21.9 2.2584-9.7331 12.289-15.957 22.015-13.701 9.7839 2.2703 16.041 12.354 13.772 22.13-2.2823 9.8347-12.418 16.124-22.245 13.843-9.8855-2.294-16.207-12.482-13.914-22.36 2.3062-9.9362 12.547-16.29 22.475-13.986 9.987 2.3182 16.373 12.611 14.057 22.591-2.3301 10.038-12.676 16.457-22.706 14.128-10.089-2.342-16.54-12.74-14.199-22.821 2.354-10.139 12.804-16.623 22.936-14.271 10.19 2.366 16.706 12.869 14.342 23.051-2.378 10.241-12.933 16.789-23.166 14.413-10.292-2.39-16.873-12.998-14.484-23.282 2.4019-10.342 13.062-16.956 23.397-14.556 10.393 2.4139 17.039 13.126 14.627 23.512-2.4257 10.444-13.191 17.122-23.627 14.698-10.495-2.438-17.205-13.255-14.769-23.742 2.4497-10.545 13.32-17.289 23.857-14.84 10.596 2.4616 17.372 13.384 14.912 23.972-2.4736 10.646-13.448 17.456-24.088 14.984-10.698-2.486-17.538-13.513-15.054-24.203 2.4976-10.748 13.577-17.621 24.318-15.126 10.799 2.5095 17.705 13.641 15.197 24.433-2.5215 10.85-13.706 17.788-24.548 15.268-10.901-2.533-17.871-13.77-15.339-24.663 2.5453-10.952 13.834-17.954 24.778-15.41 11.002 2.5573 18.038 13.899 15.482 24.894-2.5693 11.053-13.963 18.121-25.009 15.553-11.104-2.581-18.204-14.028-15.624-25.124 2.5932-11.155 14.092-18.287 25.239-15.696 11.205 2.6052 18.37 14.156 15.767 25.354-2.6172 11.256-14.221 18.453-25.469 15.838-11.307-2.629-18.537-14.285-15.909-25.584 2.641-11.358 14.35-18.62 25.7-15.98 11.408 2.6529 18.703 14.414 16.052 25.815-2.6649 11.459-14.478 18.786-25.93 16.123-11.51-2.677-18.869-14.543-16.194-26.045 2.6889-11.561 14.607-18.953 26.16-16.265 11.612 2.7008 19.036 14.671 16.337 26.275-2.7128 11.662-14.736 19.12-26.39 16.408-11.713-2.724-19.202-14.8-16.479-26.505 2.7366-11.764 14.864-19.286 26.621-16.55 11.815 2.7486 19.369 14.929 16.622 26.736-2.7606 11.866-14.993 19.452-26.851 16.693-11.916-2.772-19.535-15.058-16.764-26.966 2.7845-11.967 15.122-19.618 27.081-16.835 12.018 2.7965 19.701 15.186 16.907 27.196-2.8085 12.069-15.251 19.785-27.312 16.978-12.119-2.82-19.868-15.315-17.049-27.427 2.8323-12.17 15.38-19.951 27.542-17.12 12.221 2.8444 20.034 15.444 17.192 27.657-2.8562 12.271-15.508 20.117-27.772 17.263-12.322-2.868-20.201-15.573-17.334-27.888 2.8802-12.373 15.637-20.284 28.002-17.405 12.424 2.8921 20.367 15.701 17.476 28.118-2.9041 12.474-15.766 20.45-28.233 17.548-12.525-2.917-20.534-15.831-17.619-28.348 2.9281-12.576 15.895-20.617 28.463-17.69 12.627 2.94 20.7 15.959 17.762 28.578-2.9519 12.677-16.023 20.783-28.693 17.832-12.728-2.964-20.866-16.087-17.904-28.808 2.9758-12.779 16.152-20.95 28.924-17.975 12.83 2.9878 21.033 16.216 18.046 29.039-2.9998 12.881-16.281 21.116-29.154 18.118-12.932-3.012-21.199-16.345-18.189-29.269 3.0237-12.982 16.41-21.282 29.384-18.26 13.033 3.0357 21.366 16.474 18.332 29.499-3.0476 13.084-16.538 21.449-29.614 18.403-13.134-3.06-21.532-16.603-18.474-29.73 3.0715-13.185 16.667-21.615 29.845-18.545 13.236 3.0835 21.698 16.732 18.616 29.96-3.0954 13.287-16.796 21.781-30.075 18.688-13.338-3.108-21.865-16.861-18.759-30.19 3.1194-13.388 16.925-21.948 30.305-18.83 13.439 3.1313 22.031 16.989 18.901 30.42-3.1432 13.49-17.053 22.114-30.536 18.972-13.541-3.155-22.197-17.117-19.044-30.65 3.1672-13.591 17.182-22.281 30.766-19.115 13.642 3.1791 22.364 17.247 19.186 30.881-3.1911 13.693-17.311 22.447-30.996 19.257-13.744-3.203-22.53-17.375-19.329-31.111 3.215-13.794 17.44-22.613 31.226-19.4 13.845 3.227 22.697 17.504 19.471 31.342-3.2389 13.896-17.568 22.78-31.457 19.543-13.947-3.251-22.863-17.633-19.614-31.572 3.2628-13.998 17.697-22.946 31.687-19.685 14.048 3.2748 23.03 17.762 19.756 31.802-3.2868 14.099-17.826 23.113-31.918 19.828-14.15-3.299-23.196-17.891-19.899-32.033 3.3107-14.201 17.955-23.279 32.148-19.97 14.251 3.3226 23.362 18.019 20.041 32.263-3.3345 14.302-18.084 23.445-32.378 20.113-14.353-3.347-23.529-18.148-20.184-32.494 3.3585-14.404 18.212-23.612 32.608-20.255 14.454 3.3704 23.695 18.277 20.326 32.723-3.3824 14.505-18.341 23.778-32.839 20.397-14.556-3.394-23.861-18.405-20.469-32.953 3.4064-14.607 18.47-23.945 33.069-20.54 14.658 3.4183 24.028 18.534 20.611 33.184-3.4303 14.708-18.599 24.111-33.299 20.682-14.759-3.442-24.194-18.663-20.754-33.414 3.4541-14.81 18.727-24.278 33.529-20.825 14.861 3.4661 24.361 18.792 20.896 33.645-3.4781 14.912-18.856 24.444-33.76 20.968-14.962-3.49-24.527-18.921-21.039-33.875 3.502-15.013 18.985-24.61 33.99-21.11 15.064 3.514 24.694 19.049 21.181 34.105-3.526 15.115-19.114 24.777-34.22 21.253-15.165-3.538-24.86-19.178-21.324-34.336 3.5498-15.216 19.242-24.943 34.451-21.395"
            stroke-width=".16035"
        />
        <g stroke-width=".16">
            <path d="m113.58 27.898-9 8" />
            <path d="m43.308 9.3062 70.276 16.592" />
            <path d="m104.58 37.898 9 8" />
            <path
                d="m113.58 47.898-23 10"
                marker-end="url(#ThreeDots)"
            />
        </g>
    </g>
    <g>
        <g id="tapedeck-alt">
            <path
                id="tapedeck-alt-wheel"
                class="rotate-cw"
                d="m36.452-0.627c-20.185 1e-4 -36.548 16.363-36.548 36.548 9e-5 20.185 16.363 36.548 36.548 36.548 20.185 0 36.548-16.363 36.548-36.548 0-20.185-16.363-36.548-36.548-36.548zm-24.504 14.808c0.157-0.0052 0.3181 0.0365 0.4635 0.1305l11 7.1116c2.8049 1.7465 4.711 3.2471 4.5044 3.605l-9e-4 0.0018c-0.1111 0.4943-2.1344 4.3789-2.2855 4.6406-0.1513 0.2618-2.5068 3.9616-2.877 4.3007l-4e-4 5e-4c-0.2051 0.3552-2.4243-0.5282-5.3073-2.0624l-11.727-6.0051c-0.324-0.166-0.4831-0.5073-0.4245-0.841-0.0474-0.2876 2.516-5.2505 2.7022-5.5732 0.1866-0.3231 3.213-5.0391 3.4774-5.1278 0.1357-0.1126 0.3024-0.1755 0.4743-0.1812zm49.01 0c0.1739 0.0057 0.3421 0.0699 0.4786 0.185 0.2826 0.1201 3.2881 4.8032 3.474 5.1253 0.187 0.3237 2.7685 5.3235 2.7018 5.5779 0.0556 0.3318-0.1033 0.6699-0.4254 0.8349l-11.64 5.9605c-2.9241 1.562-5.1862 2.4674-5.3932 2.1087l-7e-4 -0.0018c-0.3732-0.3445-2.7251-4.0378-2.876-4.2995-0.1513-0.2617-2.176-4.149-2.2859-4.6414l-5e-4 -6e-4c-0.2051-0.3553 1.67-1.836 4.4403-3.5657l11.063-7.1526c0.1454-0.094 0.3069-0.1357 0.4639-0.1306zm-24.506 34.237c0.3021 0 4.6771 0.19 5.1616 0.341h0.0024c0.4097 0 0.7541 2.359 0.8673 5.617l0.6627 13.169c0.0184 0.364-0.1989 0.673-0.5184 0.788-0.2466 0.185-5.8036 0.446-6.1754 0.446-0.3733 0-5.9757-0.263-6.1798-0.448-0.3162-0.117-0.5306-0.424-0.5124-0.786l0.6585-13.068c0.1096-3.309 0.456-5.718 0.8699-5.718h0.0023c0.4843-0.151 4.8594-0.341 5.1615-0.341z"
                fill="#ccc"
                stroke="#000"
                stroke-linejoin="round"
                stroke-width=".5"
            />
            <circle
                id="tapedeck-alt-center"
                cx="36.452"
                cy="35.921"
                r="7.6286"
                fill="#333"
            />
        </g>
        <g
            id="small-wheel-rail"
            fill="none"
            stroke-linecap="round"
        >
            <path
                d="m110.19 35.921h-13.722"
                stroke="#3f3f3f"
                stroke-width=".75"
            />
            <path
                d="m96.466 35.921h13.722"
                stroke="#bebebe"
                stroke-width=".3"
            />
        </g>
        <g
            fill="#b3b3b3"
            stroke="#000"
            stroke-linecap="round"
            stroke-width=".33788px"
        >
            <path
                class="rotate-ccw"
                d="m105.45 39.128v-1.3232m0-5.0906v1.3232m1.277 1.8837a1.277 1.277 0 0 1-1.277 1.277 1.277 1.277 0 0 1-1.277-1.277 1.277 1.277 0 0 1 1.277-1.277 1.277 1.277 0 0 1 1.277 1.277zm2.554 0a3.8311 3.8311 0 0 1-3.8311 3.8311 3.8311 3.8311 0 0 1-3.8311-3.8311 3.8311 3.8311 0 0 1 3.8311-3.8311 3.8311 3.8311 0 0 1 3.8311 3.8311z"
            />
            <path
                class="rotate-cw"
                d="m112.45 29.128v-1.3232m0-5.0906v1.3232m1.277 1.8837a1.277 1.277 0 0 1-1.277 1.277 1.277 1.277 0 0 1-1.277-1.277 1.277 1.277 0 0 1 1.277-1.277 1.277 1.277 0 0 1 1.277 1.277zm2.554 0a3.8311 3.8311 0 0 1-3.8311 3.8311 3.8311 3.8311 0 0 1-3.8311-3.8311 3.8311 3.8311 0 0 1 3.8311-3.8311 3.8311 3.8311 0 0 1 3.8311 3.8311z"
            />
            <path
                class="rotate-cw"
                d="m112.45 49.128v-1.3232m0-5.0906v1.3232m1.277 1.8837a1.277 1.277 0 0 1-1.277 1.277 1.277 1.277 0 0 1-1.277-1.277 1.277 1.277 0 0 1 1.277-1.277 1.277 1.277 0 0 1 1.277 1.277zm2.554 0a3.8311 3.8311 0 0 1-3.8311 3.8311 3.8311 3.8311 0 0 1-3.8311-3.8311 3.8311 3.8311 0 0 1 3.8311-3.8311 3.8311 3.8311 0 0 1 3.8311 3.8311z"
            />
        </g>
    </g>
</svg>