<?xml version="1.0" encoding="UTF-8"?>
<!-- Created with Inkscape (http://www.inkscape.org/) -->
<svg width="89.43mm" height="89.43mm" version="1.1" viewBox="0 0 89.43 89.43" xmlns="http://www.w3.org/2000/svg">
 <g transform="translate(-61.119 -84.931)">
  <circle cx="105.83" cy="129.65" r="43.682" fill="#b3b3b3" stroke="#454545" stroke-linejoin="round" stroke-width="2.065"/>
  <g fill="#1a1a1a">
   <circle cx="105.83" cy="129.65" r="12.607"/>
   <path transform="scale(.26458)" d="m400 546.46c-1.3648 0-21.129 0.85913-23.316 1.541h-0.01c-1.8699 0-3.4348 10.88-3.9297 25.832l-2.9746 59.029c-0.0824 1.6357 0.88614 3.0232 2.3144 3.5527 0.92227 0.83498 26.23 2.0234 27.916 2.0234 1.6794 0 26.782-1.1792 27.896-2.0137 1.4433-0.52178 2.4247-1.9164 2.3418-3.5625l-2.9941-59.488c-0.5113-14.718-2.067-25.373-3.918-25.373h-0.01c-2.1873-0.68189-21.951-1.541-23.316-1.541z"/>
   <path transform="scale(.26458)" d="m289.31 391.8c-0.77668 0.0256-1.5297 0.3096-2.1426 0.81835-1.1955 0.40088-14.866 21.704-15.709 23.164-0.84141 1.4574-12.421 23.877-12.207 25.176-0.26462 1.5075 0.45428 3.0493 1.918 3.7988l52.973 27.127c13.023 6.9305 23.048 10.921 23.975 9.3164l2e-3 -2e-3c1.672-1.5317 12.313-18.245 12.996-19.428 0.68248-1.1821 9.8225-18.73 10.324-20.963l4e-3 -8e-3c0.93356-1.617-7.677-8.3955-20.348-16.285l-49.691-32.125c-0.65689-0.42469-1.3843-0.61322-2.0938-0.58984z"/>
   <path transform="scale(.26458)" d="m510.7 391.8c-0.70943-0.0234-1.4388 0.16515-2.0957 0.58984l-49.975 32.311c-12.515 7.8136-20.985 14.503-20.059 16.107l2e-3 4e-3c0.49655 2.2241 9.6435 19.784 10.326 20.967 0.68235 1.1819 11.306 17.866 12.992 19.422l4e-3 8e-3c0.93556 1.6204 11.154-2.4694 24.363-9.5254l52.58-26.926c1.4549-0.74507 2.1732-2.2726 1.9219-3.7715 0.30105-1.1489-11.361-23.735-12.205-25.197-0.8398-1.4546-14.417-22.61-15.693-23.152-0.61671-0.52001-1.3764-0.81005-2.1621-0.83593z"/>
  </g>
 </g>
</svg>
